<?xml version="1.0" encoding="UTF-8" standalone="no"?>
<svg width="1024px" height="1024px" viewBox="0 0 1024 1024" version="1.1" xmlns="http://www.w3.org/2000/svg" xmlns:xlink="http://www.w3.org/1999/xlink" xmlns:sketch="http://www.bohemiancoding.com/sketch/ns">
    <!-- Generator: Sketch 3.3.3 (12072) - http://www.bohemiancoding.com/sketch -->
    <title>favicon.svg</title>
    <desc>Created with Sketch.</desc>
    <defs></defs>
    <g id="Favicons" stroke="none" stroke-width="1" fill="none" fill-rule="evenodd" sketch:type="MSPage">
        <g id="favicon.svg" sketch:type="MSArtboardGroup" fill="#16642B">
            <path d="M0,0 L1024,0 L1024,1024 L0,1024 L0,0 Z M330.99142,277.229694 C330.99142,277.229694 320.365696,205.665219 259.009382,205.665219 C192.087765,205.665219 157.974877,253.60249 157.974877,306.111724 C157.974877,374.34593 214.992542,430.495003 289.109283,430.494995 C363.226024,430.494987 439.141556,365.749548 439.141572,296.386459 C397.159382,296.386459 375.806721,296.386459 344.781324,296.386461 C344.781319,317.148809 324.741019,361.92697 271.581456,361.92697 C218.421894,361.92697 208.718073,320.59694 208.718073,300.885805 C208.718073,281.174669 220.459601,249.470815 262.819288,249.653116 C295.421361,249.793424 295.852592,277.229694 295.852592,277.229694 L330.99142,277.229694 Z M748.348216,701.107689 C748.348216,701.107689 737.722491,629.543215 676.366178,629.543215 C609.44456,629.543215 575.331673,677.480486 575.331673,729.989719 C575.331673,798.223926 632.349338,854.372999 706.466079,854.372991 C780.58282,854.372983 856.498352,789.627543 856.498368,720.264455 C814.516178,720.264455 793.163517,720.264455 762.138119,720.264456 C762.138114,741.026805 742.097814,785.804966 688.938252,785.804966 C635.77869,785.804966 626.074868,744.474936 626.074868,724.7638 C626.074868,705.052665 637.816397,673.348811 680.176083,673.531112 C712.778156,673.67142 713.209388,701.10769 713.209388,701.10769 L748.348216,701.107689 Z M329.413511,758.301626 C329.413511,758.301626 400.977985,747.675902 400.977985,686.319588 C400.977985,619.397971 353.040714,585.285083 300.531481,585.285083 C232.297274,585.285083 176.148201,642.302749 176.148209,716.419489 C176.148217,790.53623 240.893657,866.451762 310.256745,866.451778 C310.256745,824.469589 310.256745,803.116928 310.256744,772.09153 C289.494395,772.091525 244.716234,752.051225 244.716234,698.891663 C244.716234,645.7321 286.046264,636.028279 305.7574,636.028279 C325.468535,636.028279 357.172389,647.769808 356.990088,690.129494 C356.84978,722.731567 329.41351,723.162798 329.41351,723.162798 L329.413511,758.301626 Z M748.348216,332.845721 C748.348216,332.845721 737.722491,404.410196 676.366178,404.410196 C609.44456,404.410196 575.331673,356.472925 575.331673,303.963691 C575.331673,235.729485 632.349338,179.580411 706.466079,179.58042 C780.58282,179.580428 856.498352,244.325867 856.498368,313.688956 C814.516178,313.688956 793.163517,313.688956 762.138119,313.688954 C762.138114,292.926605 742.097814,248.148445 688.938252,248.148445 C635.77869,248.148445 626.074868,289.478475 626.074868,309.18961 C626.074868,328.900746 637.816397,360.6046 680.176083,360.422298 C712.778156,360.28199 713.209388,332.84572 713.209388,332.84572 L748.348216,332.845721 Z" id="Rectangle-1-Copy-3" sketch:type="MSShapeGroup"></path>
        </g>
    </g>
</svg>