<svg
	width="7.47778in" height="7.58889in"
	viewBox="0 0 720 720"
	
	version="1.1" xmlns="http://www.w3.org/2000/svg" xmlns:xlink="http://www.w3.org/1999/xlink">
		
    <title>Mapa do Brasil</title>
    <desc></desc>
    <defs></defs>
    <style></style>
    
    <g fill-rule="evenodd" id="map">
	    <g id="all_map">
		    <path d="M135.920469,283.024877 L145.388557,277.834696 L152.93898,278.274746 L158.774623,280.44798 L161.53467,284.329488 L158.826885,294.01911 L159.415029,305.409139 L167.044514,316.542755 L174.765408,323.77526 L191.48548,332.874322 L214.845164,342.068382 L245.289837,350.961227 L247.396054,357.672596 L253.425678,359.753101 L254.134208,370.470009 L250.514124,371.095519 L246.302011,374.653017 L251.865171,383.762278 L254.146682,397.276842 L283.53714,397.172921 L284.420908,405.551088 L286.662119,409.857906 L293.993823,415.86104 L297.964828,431.109011 L301.813721,434.572755 L298.813478,442.431634 L299.389308,489.676492 L296.537212,501.979494 L299.354445,507.584017 L328.456412,507.520641 L328.18129,511.064133 L335.362351,511.158653 L336.616456,516.663412 L343.539762,516.757933 L342.73234,539.008792 L358.013686,534.221196 L358.365772,567.559393 L359.032435,571.18615 L369.111391,570.735228 L368.836845,579.69433 L368.844395,586.856203 L365.393121,592.821668 L353.95832,599.452294 L343.766877,601.642186 L343.600722,609.152786 L333.787677,615.000517 L324.142033,628.192638 L322.812575,636.728765 L305.515937,655.907136 L320.81898,658.124465 L330.467023,664.000079 L332.7967,669.875692 L343.44266,676.083855 L354.421248,676.305767 L361.408105,679.188192 L362.074577,687.059223 L366.73278,695.59535 L371.058451,696.482423 L373.0555,710.339704 L369.064824,712.889581 L367.39938,719.933078 L376.526828,718.681482 L381.264478,712.433221 L387.998026,709.843247 L390.648881,698.48564 L394.297621,691.45148 L413.580914,680.093873 L417.531194,671.911271 L423.14468,662.065864 L429.423518,657.208934 L436.908231,639.776761 L442.827799,636.944347 L446.039933,629.622598 L453.909214,622.300847 L454.792822,582.387332 L459.990459,573.719721 L464.410289,570.539216 L469.155615,567.578962 L479.999297,557.022157 L482.371992,548.347383 L492.58819,544.377526 L508.138018,541.976017 L512.079376,540.201873 L513.510829,535.291032 L521.217058,535.398854 L531.080316,534.6833 L532.766678,530.017522 L570.533293,529.743042 L573.160864,527.586595 L575.474742,521.352469 L589.396962,517.941357 L592.65205,513.589261 L592.083383,503.571569 L593.558654,500.835656 L596.836257,499.55899 L601.81647,499.984588 L603.731961,495.303398 L604.455556,488.579595 L608.031118,483.983587 L614.501186,476.153293 L616.884851,464.407885 L616.544355,455.386045 L618.92802,447.385577 L617.565907,441.427785 L623.179969,440.980828 L629.403572,439.592439 L629.979467,425.608471 L632.727616,419.442452 L634.172374,408.933164 L636.05166,403.201441 L640.971935,398.338436 L641.547831,357.860453 L639.082735,350.825781 L645.862403,350.142491 L653.510934,345.984584 L657.683948,340.957991 L661.422626,337.668738 L662.120185,330.036151 L667.59659,326.746898 L669.163013,320.851683 L677.989688,313.00003 L686.970525,300.884695 L674.245283,298.895673 L687.190187,300.557966 L694.982325,298.97235 L695.878758,291.319939 L703.670896,289.182805 L709.256428,277.669764 L710.152862,272.499248 L715.048828,269.396926 L718.878084,259.415653 L719.114072,243.062452 L719.328986,227.521601 L719.752448,218.157397 L715.905026,212.748694 L713.543812,198.154275 L684.070068,197.779327 L669.979004,187.884767 C654.034384,170.376208 632.59036,153.56763 602.494814,155.823875 L591.593142,153.023975 L560.284185,144.038462 L556.830864,148.82092 L550.637261,147.255322 L540.87475,134.701661 L534.608097,133.11918 L524.255745,126.509337 L519.246236,123.670016 L510.372514,122.567427 L503.131579,112.715083 L477.93406,112.941087 L474.288486,124.769248 L468.756654,128.528801 L463.653496,124.907512 L464.133569,114.662855 L471.945535,104.201241 L450.766197,102.805195 L448.370666,99.0858199 L438.85916,98.9995968 L436.187175,85.9098906 L441.090745,77.3145637 L442.351406,70.5458985 L435.877373,60.7029371 L424.459524,59.7567256 L413.700854,20.2580006 L409.610453,19.7743191 L390.358984,57.8431511 L352.724462,53.7448151 L344.654322,55.6628982 L330.234183,54.923826 L329.71554,66.44891 L302.313239,67.8612002 L296.797879,72.7745349 L281.2145,73.7492052 L266.937514,72.7058297 L265.256462,66.3478608 L255.145777,57.9960582 L259.201859,13.2698523 L255.111427,11.9149261 L255.467787,3.37201221 L253.127267,0.144936601 L246.278503,0.111250396 L235.564355,16.1253235 L225.3965,17.5571832 L221.637976,22.243058 L209.124708,22.9439993 L206.458229,29.5351512 L202.048841,26.5425693 L191.46939,26.5567668 L185.682969,20.9078447 L175.103519,17.4370654 L164.724494,14.5001532 L178.310519,27.6813066 L180.567594,53.4955476 L193.637493,53.3061476 L192.914261,61.9385136 L181.286072,61.9323107 L180.020997,69.8753346 L159.295073,78.3247108 L128.423076,79.245501 L121.759731,69.9463836 L120.935261,55.9998745 L112.171938,63.3127997 L109.33597,63.9414754 L106.557796,59.5905463 L103.319148,59.8435386 L102.84349,63.3192425 L76.1192625,64.0326063 L73.6072077,79.1663923 L83.0681796,79.5676888 L82.8586554,85.9540517 L67.7065583,85.5475121 L67.1912887,96.5427209 L74.9650197,105.696364 L75.3707539,124.978561 L78.5394781,143.800402 L68.1892936,174.429843 L50.0106141,173.752724 L41.9629404,183.664577 L31.4158659,182.79765 L26.3948217,190.678145 L17.362669,190.893566 L16.1590103,203.53954 L10.3503626,203.754961 L9.22692052,226.648598 L7.48647383,229.676868 L4.90148122,228.737096 L0.688798952,228.551602 L0.298949869,250.751557 L7.43794376,255.840439 L7.47739179,264.205239 L21.9889782,280.213819 L31.9769502,280.367942 L32.6809352,289.257785 L48.4031466,288.865891 L52.8573914,283.203427 L61.9536629,280.543873 L62.3120374,308.186553 L110.711674,307.922082 L110.506892,300.832795 L112.213507,298.1114 L113.647071,301.122847 L118.90343,299.220449 L118.971714,293.769122 L126.139502,293.231673 L127.504797,287.021081 L133.239036,282.175439 L135.920469,283.024877 Z"></path>
	    </g>
	    
		<a href="#" class="regiao"><g id="norte">
<!-- TO -->	<a href="#" class="estado" id="TO">
				<path 	id="TO" state="TO" data-name="Tocantins"
						d="M474.879092,199.940922 L461.085221,199.940922 L472.164333,190.111471 L485.297873,199.647513 L486.398489,238.525203 L496.303679,246.594164 L505.328428,246.447459 L505.254995,256.27691 L495.496577,256.130174 L496.257783,272.176421 L505.2367,289.396307 L514.632873,288.717781 L498.541532,307.991567 L509.2813,307.899861 L509.16213,331.281513 L487.618243,342.926485 L468.746802,343.098388 L460.734427,335.934885 L455.069863,335.813409 L449.11185,344.201008 L437.2841,338.504586 L436.608832,321.071549 L427.422407,330.339346 L423.951879,329.868854 L424.00318,312.673621 L431.685199,280.807548 L452.608989,252.155168 L464.141179,220.862037 L470.977586,207.173908 L474.879092,199.940922 L474.879092,199.940922 Z"></path>
				<text class="etiqueta" id="TO" x="452.68" y="306.18">TO</text>
				<text class="completo" id="TO" x="720" y="40">Tocantins</text>
			</a>
<!-- PA -->	<a href="#" class="estado" id="PA">
				<path	id="PA" state="PA" data-name="Pará"
						d="M330.234183,54.923826 L344.654322,55.6628982 L352.654416,53.3667333 L353.213009,69.4510958 L366.028249,70.2183387 L402.919027,120.875652 L412.232363,121.205291 L412.790923,107.530656 L436.111875,85.5410064 L438.85916,98.9995968 L448.370666,99.0858199 L450.766197,102.805195 L471.945535,104.201241 L464.133569,114.662855 L463.653496,124.907512 L468.756654,128.528801 L474.288486,124.769248 L477.93406,112.941087 L503.131579,112.715083 L510.47937,122.987719 L496.566329,168.034306 L471.65084,190.848579 L471.76726,190.964971 L461.172346,200.335123 L474.969031,200.335123 L471.068677,207.610093 L464.257729,221.287031 L452.731392,252.540256 L431.250546,281.029015 L305.159579,264.063817 L291.770459,232.810559 L283.508612,221.997437 L327.423156,136.251722 L288.028454,120.73346 L275.69914,93.5420543 L281.2145,73.7492052 L296.797879,72.7745349 L302.313239,67.8612002 L329.71554,66.44891 L330.234184,54.9238312 L330.234183,54.923826 Z"></path>
				<text class="etiqueta" id="PA" x="369.22" y="193.83">PA</text>
				<text class="completo" id="PA" x="720" y="40">Pará</text>
			</a>
<!-- AP -->	<a href="#" class="estado" id="AP">
				<path	id="AP" state="AP" data-name="Amapá"
						d="M352.72446,53.7448151 L353.283052,69.8291934 L366.098228,70.5964362 L402.98907,121.253765 L412.302407,121.583372 L412.860999,107.908768 L436.181919,85.9191029 L441.090745,77.3145637 L442.351406,70.5458985 L435.877373,60.7029371 L424.459524,59.7567256 L413.700854,20.2580006 L409.610453,19.7743191 L390.358984,57.8431511 L352.724462,53.7448151 L352.72446,53.7448151 Z"></path>
				<text class="etiqueta" id="AP" x="394.9" y="85.76">AP</text>
				<text class="completo" id="AP" x="720" y="40">Amapá</text>
			</a>
<!-- RR -->	<a href="#" class="estado" id="RR">
				<path	id="RR" state="RR" data-name="Roraima"
						d="M253.127271,0.144954414 L246.278503,0.111250396 L235.564355,16.1253235 L225.3965,17.5571832 L221.637976,22.243058 L209.124708,22.9439993 L206.458229,29.5351512 L202.048841,26.5425693 L191.46939,26.5567668 L185.682969,20.9078447 L175.103519,17.4370654 L164.724494,14.5001532 L178.310519,27.6813066 L180.567594,53.4955476 L193.659059,53.3058351 L202.828966,61.3929898 L203.284315,70.351405 L211.020944,79.6391549 L210.478728,84.5706362 L202.529135,96.0364964 L212.4444,106.631112 L212.77367,116.354468 L222.253207,123.464091 L227.375459,122.296879 L233.122236,107.193854 L244.969192,106.466437 L254.63756,92.6703098 L275.582714,93.7421536 L281.363026,73.8114089 L266.937514,72.7058297 L265.256462,66.3478608 L255.145777,57.9960582 L259.201859,13.2698523 L255.111427,11.9149261 L255.467787,3.37201221 L253.127267,0.144936601 L253.127267,0.144952318 L253.127271,0.144954414 Z"></path>
				<text class="etiqueta" id="RR" x="223.7" y="73.99">RR</text>
				<text class="completo" id="RR" x="720" y="40">Roraima</text>
			</a>
<!-- RO -->	<a href="#" class="estado" id="RO">
				<path	id="RO" state="RO" data-name="Rondônia"
						d="M214.845163,342.068383 L245.414757,350.997716 L263.283789,317.078605 L254.293006,316.491818 L247.763162,307.436788 L256.424354,307.163618 L256.262006,300.104773 L228.271785,300.840248 L227.770124,261.888789 L220.234926,261.068738 L206.913739,245.298058 L194.959494,245.243475 L145.414241,277.9877 L152.93898,278.274746 L158.774623,280.44798 L161.53467,284.329488 L158.826885,294.01911 L159.415029,305.409139 L167.044514,316.542755 L174.765408,323.77526 L191.48548,332.874322 L214.845164,342.068382 L214.845163,342.068383 Z"></path>
				<text class="etiqueta" id="RO" x="191.6" y="320.09">RO</text>
				<text class="completo" id="RO" x="720" y="40">Rondônia</text>
			</a>
<!-- AM -->	<a href="#" class="estado" id="AM">
				<path	id="AM" state="AM" data-name="Amazonas"
						d="M192.914261,61.9385136 L193.647738,53.1838638 L202.845501,61.2154127 L203.311213,70.1781604 L210.995421,79.4901162 L210.4715,84.4370901 L202.554436,95.9024221 L212.450767,106.494768 L212.800042,116.214127 L222.230678,123.314477 L227.353472,122.150494 L233.116641,107.018563 L244.992222,106.32018 L254.655729,92.5268506 L275.612685,93.5744413 L277.126239,88.3364721 L275.729105,93.3998367 L288.012172,120.579108 L327.422898,136.118411 L283.529751,221.846571 L291.621413,232.438933 L281.666905,261.713369 L227.528119,261.305966 L227.528119,261.713369 L220.251411,260.898562 L206.92047,245.126444 L194.986647,245.068248 L145.388557,277.834696 L135.920469,283.024877 L7.1824559,230.20584 L9.22692052,226.648598 L10.3503626,203.754961 L16.1590103,203.53954 L17.362669,190.893566 L26.3948217,190.678145 L31.4158659,182.79765 L41.9629404,183.664577 L50.0106141,173.752724 L68.1892936,174.429843 L78.5394781,143.800402 L75.3707539,124.978561 L74.9650197,105.696364 L67.1912887,96.5427209 L67.7065583,85.5475121 L82.8586554,85.9540517 L83.0681796,79.5676888 L73.6072077,79.1663923 L76.1192625,64.0326063 L102.84349,63.3192425 L103.319148,59.8435386 L106.557796,59.5905463 L109.33597,63.9414754 L112.171938,63.3127997 L120.935261,55.9998745 L121.759731,69.9463836 L128.423076,79.245501 L159.295073,78.3247108 L180.020997,69.8753346 L181.286072,61.9323107 L192.914261,61.9385136 L192.914261,61.9385136 Z"></path>
				<text class="etiqueta" id="AM" x="170.2" y="190.62">AM</text>
				<text class="completo" id="AM" x="720" y="40">Amazonas</text>
			</a>
<!-- AC -->	<a href="#" class="estado" id="AC">
				<path	id="AC" state="AC" data-name="Acre"
						d="M4.90148122,228.737096 L7.90512838,229.829069 L133.239036,282.175439 L127.504797,287.021081 L126.139502,293.231673 L118.971714,293.769122 L118.90343,299.220449 L113.647071,301.122847 L112.213507,298.1114 L110.506892,300.832795 L110.711674,307.922082 L62.3120374,308.186553 L61.9536629,280.543873 L52.8573914,283.203427 L48.4031466,288.865891 L32.6809352,289.257785 L31.9769502,280.367942 L21.9889782,280.213819 L7.47739179,264.205239 L7.43794376,255.840439 L0.298949869,250.751557 L0.688798952,228.551602 L4.90148961,228.737093 L4.90147913,228.737093 L4.90148122,228.737096 Z"></path>
				<text class="etiqueta" id="AC" x="52.5" y="270.87">AC</text>
				<text class="completo" id="AC" x="720" y="40">Acre</text>
			</a>
		</g></a>
		
		<a href="#" class="regiao"><g id="nordeste">
<!-- BA --> <a href="#" class="estado">
				<path	id="BA" state="BA" data-name="Bahia"
						d="M623.179969,440.980828 L617.532325,440.546469 L605.558283,429.226786 L602.707274,420.513066 L617.233663,407.021715 L614.817119,400.914021 L596.326569,385.251004 L584.352463,385.658184 L568.902967,375.64145 L546.936899,374.745681 L544.954819,364.728979 L522.988751,380.337669 L508.408086,381.179144 L509.467027,308.184765 L498.361785,308.157618 L514.191437,289.019984 L523.939044,288.992868 L532.13219,302.667439 L548.145171,293.756908 L556.338318,285.280703 L547.750623,274.285894 L590.860463,274.149325 L600.518964,265.326184 L604.964285,266.058237 L614.188387,278.517217 L634.707713,261.876156 L653.923776,274.335104 L654.42515,290.659669 L664.049622,291.348364 L663.682131,298.117669 L653.322615,299.240722 L653.389589,310.787689 L661.710733,318.425616 L669.163013,320.851683 L667.59659,326.746898 L662.120185,330.036151 L661.422626,337.668738 L657.683948,340.957991 L653.510934,345.984584 L645.862403,350.142491 L639.082735,350.825781 L641.547831,357.860453 L640.971935,398.338436 L636.05166,403.201441 L634.172374,408.933164 L632.727616,419.442452 L629.979467,425.608471 L629.403572,439.592439 L623.179969,440.980827 L623.179969,440.980828 Z"></path>
				<text class="etiqueta" id="BA" x="577.87" y="344.7">BA</text>
				<text class="completo" id="BA" x="720" y="40">Bahia</text>
			</a>
<!-- SE --> <a href="#" class="estado">
				<path	id="SE" state="SE" data-name="Sergipe"
						d="M677.989688,313.00003 L668.695095,321.037719 L662.224196,318.410781 L653.557119,311.392481 L652.419787,299.355581 L663.832134,298.296959 L673.675757,298.806653 L686.970525,300.884695 L677.989689,313.000031 L677.989688,313.00003 Z"></path>
				<text class="etiqueta" id="SE" x="667.75" y="314.74">SE</text>
				<text class="completo" id="SE" x="720" y="40">Sergipe</text>
			</a>
<!-- AL -->  <a href="#" class="estado">
				<path	id="AL" state="AL" data-name="Alagoas"
						d="M674.289839,298.898039 L687.190187,300.557966 L694.982325,298.97235 L695.878758,291.319939 L703.670896,289.182805 L709.256428,277.669764 L710.152862,272.499248 L695.602933,276.980334 L681.880481,278.428101 L676.096715,276.230629 L671.692077,272.378602 L668.390806,269.078062 L664.537818,269.362455 L659.029878,272.680198 L654.349415,274.894904 L654.358051,290.621937 L664.219967,291.174543 L663.876272,298.345432 L674.28984,298.898038 L674.289839,298.898039 Z"></path>
				<text class="etiqueta" id="AL" x="693.43" y="292.27">AL</text>
				<text class="completo" id="AL" x="720" y="40">Alagoas</text>
			</a>
<!-- RN -->  <a href="#" class="estado">
				<path	id="RN" state="RN" data-name="Rio Grande do Norte"
						d="M719.155125,227.343144 L719.752448,218.157397 L715.905026,212.748694 L713.543812,198.154275 L684.070068,197.779327 L669.930424,187.850655 L650.262819,217.456136 L661.930075,224.177094 L677.819728,219.566857 L679.042009,230.509194 L688.709146,231.009104 L689.042541,221.066554 L719.155123,227.343143 L719.155125,227.343144 Z"></path>
				<text class="etiqueta" id="RN" x="676.31" y="213.09">RN</text>
				<text class="completo" id="RN" x="720" y="40">Rio Grande do Norte</text>
			</a>
<!-- CE -->  <a href="#" class="estado">
				<path	id="CE" state="CE" data-name="Ceará"
						d="M615.37216,239.340874 L602.427035,155.828987 C632.558167,153.542399 654.022286,170.363259 670.152711,187.628487 L644.984776,224.760269 L652.48516,241.451563 L643.984716,251.255242 L631.039591,238.840933 L615.372159,239.340874 L615.37216,239.340874 Z"></path>
				<text class="etiqueta" id="CE" x="620" y="205.6">CE</text>
				<text class="completo" id="CE" x="720" y="40">Ceará</text>
			</a>
<!-- PI -->  <a href="#" class="estado">
				<path	id="PI" state="PI" data-name="Piauí"
						d="M524.146744,288.999487 L514.478168,289.446668 L514.811533,265.072073 C521.219233,242.321751 537.183023,228.458683 558.702602,220.81663 L569.925416,220.552766 L570.703254,187.406319 L591.593142,153.023975 L602.482624,155.745658 L615.372161,238.452138 L615.14994,252.282848 L603.816016,260.781211 L605.149408,266.391266 L600.70479,265.016532 L590.926478,274.084256 L548.479912,274.709127 L556.75807,285.418904 L548.146516,293.684708 L531.756833,302.839215 L524.146746,288.999488 L524.146744,288.999487 Z"></path>
				<text class="etiqueta" id="PI" x="562.89" y="249.47">PI</text>
				<text class="completo" id="PI" x="720" y="40">Piauí</text>
			</a>
<!-- MA -->  <a href="#" class="estado">
				<path	id="MA" state="MA" data-name="Maranhão"
						d="M485.636801,199.697363 L486.220692,238.855674 L495.613827,246.352332 L505.338662,246.663009 L505.131121,256.115946 L495.576694,256.526515 L496.472711,273.22203 L505.813553,289.526002 L514.07975,288.989609 L514.413081,265.619053 C520.820781,242.868763 536.784571,229.005663 558.30415,221.36361 L569.526964,221.099778 L570.304803,187.953298 L591.194754,153.570954 L560.284185,144.038462 L556.830864,148.82092 L550.637261,147.255322 L540.87475,134.701661 L534.608097,133.11918 L524.255745,126.509337 L519.246236,123.670016 L510.372514,122.567427 L496.470091,167.653663 L471.567748,190.431005 L485.636805,199.697363 L485.636801,199.697363 Z"></path>					
				<text class="etiqueta" id="MA" x="512.6" y="201.32">MA</text>
				<text class="completo" id="MA" x="720" y="40">Maranhão</text>
			</a>
<!-- PB -->  <a href="#" class="estado">
				<path	id="PB" state="PB" data-name="Paraíba"
						d="M688.638335,230.904095 L688.785971,221.303366 L719.328986,227.521601 L719.13459,243.045331 L710.27574,250.437045 L695.072901,251.210475 L683.179969,259.980984 L674.872834,239.796527 L661.324884,250.497351 L652.466097,241.343388 L644.905904,224.754224 L650.48811,217.383519 L661.342411,224.170795 L678.051929,219.216563 L679.046872,230.541618 L688.638335,230.904095 L688.638335,230.904095 Z"></path>
			    <text class="etiqueta" id="PB" x="695.57" y="236.63">PB</text>
			    <text class="completo" id="PB" x="720" y="40">Paraíba</text>
			</a>
<!-- PE -->  <a href="#" class="estado">
				<path	id="PE" state="PE" data-name="Pernambuco"
						d="M710.083903,272.430277 L715.048828,269.396926 L718.878084,259.415653 L719.121606,242.540338 L710.26282,249.93202 L695.059916,250.70545 L683.166984,259.475959 L674.859848,239.291502 L661.311899,249.992326 L652.453112,240.838363 L643.36801,251.713679 L631.248827,238.873547 L614.992195,239.26995 L614.733577,252.351403 L603.993521,261.572195 L605.114095,266.105019 L614.233675,278.359162 L634.937994,261.658339 L653.98736,275.01555 L665.037718,269.345188 L669.744089,270.293142 L676.657,276.204793 L683.29415,278.255751 L696.551113,276.446082 L710.083903,272.430276 L710.083903,272.430277 Z"></path>
				<text class="etiqueta" id="PE" x="699.85" y="261.24">PE</text>
				<text class="completo" id="PE" x="720" y="40">Pernambuco</text>
			</a>
		</g></a>
		
		<a href="#" class="regiao"><g id="sudeste">
<!-- SP -->  <a href="#" class="estado">
				<path	id="SP" state="SP" data-name="São Paulo"
						d="M464.194624,563.589536 L469.469373,566.951661 L479.999297,557.022157 L482.371992,548.347383 L492.58819,544.377526 L508.138018,541.976017 L512.079376,540.201873 L513.510829,535.291032 L521.217058,535.398854 L529.23711,524.214685 L530.041047,519.617527 L521.432755,513.765703 L509.687107,518.892188 L501.392541,522.764007 L494.353008,521.930846 L493.588251,497.259036 L482.470055,471.646306 L453.782306,471.440446 L436.703059,459.942658 L419.309991,458.482132 L419.800233,467.372614 L415.584298,467.794056 L405.407344,479.821171 L404.015103,497.180631 L387.877034,508.266762 L400.916926,509.001886 L435.918663,525.420363 L453.037218,562.540729 L464.194626,563.589535 L464.194624,563.589536 Z"></path>
				<text class="etiqueta" id="SP" x="448.4" y="516.97">SP</text>
				<text class="completo" id="SP" x="720" y="40">São Paulo</text>
			</a>
<!-- RJ -->  <a href="#" class="estado">
				<path	id="SP" state="SP" data-name="Rio de Janeiro"
						d="M521.864147,535.2714 L528.97606,523.912066 L529.67829,519.735134 L521.595743,513.362617 L529.827844,512.635999 L545.275869,511.595763 L555.704085,508.673561 L563.30867,504.496629 L569.658224,496.869445 L576.007842,487.67385 L592.083383,503.571569 L592.65205,513.589261 L589.396962,517.941357 L575.474742,521.352469 L573.160864,527.586595 L570.533293,529.743042 L532.766678,530.017522 L531.080316,534.6833 L521.864146,535.271399 L521.864147,535.2714 Z"></path>
				<text class="etiqueta" id="RJ" x="576.8" y="523.39">RJ</text>
				<text class="completo" id="RJ" x="720" y="40">Rio de Janeiro</text>
			</a>
<!-- ES -->  <a href="#" class="estado">
				<path	id="ES" state="ES" data-name="Espírito Santo"
						d="M592.026261,503.048572 L593.558654,500.835656 L596.836257,499.55899 L601.81647,499.984588 L603.731961,495.303398 L604.455556,488.579595 L608.031118,483.983587 L614.501186,476.153293 L616.884851,464.407885 L616.544355,455.386045 L618.92802,447.385577 L617.565907,441.427785 L610.755343,439.895762 L601.73133,436.831715 L594.750485,436.831715 L594.069429,457.598962 L590.834427,466.110148 L586.067033,476.153293 L575.851186,477.344839 L576.191682,487.388048 L592.02626,503.048571 L592.026261,503.048572 Z"></path>
				<text class="etiqueta" id="ES" x="608.9" y="478.45">ES</text>
				<text class="completo" id="ES" x="720" y="40">Espírito Santo</text>
			</a>
<!-- MG -->  <a href="#" class="estado">
				<path	id="MG" state="MG" data-name="Minas Gerais"
						d="M497.213034,372.435751 L507.769504,372.316002 L508.779831,380.727839 L523.391488,379.913032 L545.338045,364.257338 L547.317312,374.325904 L569.26387,375.198843 L584.748739,385.209246 L596.740756,384.80181 L615.194525,400.457537 L617.639471,406.568492 L603.086088,420.070842 L605.938567,428.800806 L617.930584,440.528052 L611.119573,439.451364 L602.096456,436.366723 L595.110814,436.366723 L594.470441,457.144011 L591.210492,465.641192 L586.436955,475.709726 L576.249575,476.873772 L576.51152,487.087797 L570.020663,496.428818 L563.675395,504.052995 L556.107591,508.243358 L545.68737,511.153346 L530.202501,512.200937 L521.994323,512.899352 L526.826069,516.740539 L521.819693,513.306724 L510.060516,518.428349 L501.794191,522.327732 L494.750372,521.512925 L493.993547,496.836254 L482.874743,471.228386 L454.175384,470.995602 L437.118782,459.472041 L419.712856,458.017015 L441.159448,438.50277 L478.252938,437.556863 L479.57117,419.832111 L489.67968,403.343735 L490.385972,383.793678 L497.183518,383.866135 L497.213039,372.435752 L497.213034,372.435751 Z"></path>
				<text class="etiqueta" id="MG" x="523.3" y="461.33">MG</text>
				<text class="completo" id="MG" x="720" y="40">Minas Gerais</text>
			</a>
		</g></a>

		<a href="#" class="regiao"><g id="centro-oeste">
<!-- GO -->  <a href="#" class="estado">
				<path	id="GO" state="GO" data-name="Goiás"
						d="M424.810317,339.829247 L424.090081,329.590761 L427.582902,330.05636 L436.780713,320.802632 L437.421054,338.204333 L449.296619,343.907885 L455.234417,335.527129 L460.881198,335.643553 L468.91465,342.802099 L487.775889,342.627511 L509.256767,330.987559 L508.616426,377.547336 L507.917907,372.01834 L497.381171,372.134764 L497.322961,383.600096 L490.570191,383.483704 L490.2209,393.144867 L490.453771,383.367312 L468.507182,379.700713 L467.983261,397.218837 L490.04627,396.636814 L489.813399,403.038813 L479.742406,419.567478 L478.403513,437.26019 L441.321377,438.191388 L419.898741,457.746498 L383.684189,429.750422 L383.502811,399.173963 L421.992508,347.741205 L424.810318,339.829246 L424.810317,339.829247 Z"></path>
				<text class="etiqueta" id="GO" x="416.3" y="420.67">GO</text>
				<text class="completo" id="GO" x="720" y="40">Goiás</text>
			</a>
<!-- MS -->  <a href="#" class="estado">
				<path	id="MS" state="MS" data-name="Mato Grosso do Sul"
						d="M420.08207,457.804503 L419.96565,467.40747 L415.774246,467.814841 L405.586897,479.862229 L404.189763,497.205701 L388.064521,508.321827 L358.200898,534.162543 L342.73234,539.008792 L343.539762,516.757933 L336.616456,516.663412 L335.362351,511.158653 L328.18129,511.064133 L328.456412,507.520641 L299.354445,507.584017 L296.537212,501.979494 L299.389308,489.676492 L298.813478,442.431634 L304.02717,429.234014 L311.560081,418.61281 L316.0007,413.917039 L335.387556,414.373972 L348.024359,423.385707 L361.949586,423.380399 L368.144083,417.449467 L371.045529,415.387093 L371.112439,429.555499 L383.873147,429.810473 L420.08207,457.804503 L420.08207,457.804503 Z"></path>
				<text class="etiqueta" id="MS" x="333.91" y="485.94">MS</text>
				<text class="completo" id="MS" x="720" y="40">Mato Grosso do Sul</text>
			</a>
<!-- MT -->  <a href="#" class="estado">
				<path	id="MT" state="MT" data-name="Mato Grosso"
						d="M247.396054,357.672596 L245.158953,350.544171 L263.027984,317.29441 L254.037202,316.707654 L247.507357,307.652623 L256.16855,307.379423 L256.006202,300.320577 L228.01598,300.386703 L227.51432,261.435244 L281.650403,261.840633 L291.669071,232.389083 L305.081379,263.669265 L431.647589,280.746539 L423.963396,312.639952 L423.905186,329.808868 L424.021606,329.808868 L424.720125,339.819239 L421.925888,347.6762 L383.446618,399.124723 L383.621279,429.737761 L383.679489,429.795957 L371.047131,429.504978 L370.988888,415.362472 L368.078199,417.399394 L361.907561,423.335761 L347.936277,423.335761 L335.303887,414.314818 L315.918695,413.84925 L311.494482,418.56344 L303.984888,429.213998 L301.813721,434.572755 L297.964828,431.109011 L293.993823,415.86104 L286.662119,409.857906 L284.420908,405.551088 L283.53714,397.172921 L254.146682,397.276842 L251.865171,383.762278 L246.302011,374.653017 L250.514124,371.095519 L254.134208,370.470009 L253.425678,359.753101 L247.396055,357.672597 L247.396054,357.672596 Z"></path>				
				<text class="etiqueta" id="MT" x="318.93" y="360.75">MT</text>
				<text class="completo" id="MT" x="720" y="40">Mato Grosso</text>
			</a>
<!-- DF -->  <a href="#" class="estado">
				<path	id="DF" state="DF" data-name="Distrito Federal"
						d="M489.953261,396.903173 L490.303801,383.682657 L468.349247,380.019128 L467.807511,397.508473 L489.953261,396.903172 L489.953261,396.903173 Z"></path>				
				<text class="etiqueta" id="DF" x="470.87" y="389.64">DF</text>
				<text class="completo" id="DF" x="720" y="40">Distrito Federal</text>
			</a>
		</g></a>
		
		<a href="#" class="regiao"><g id="sul">
<!-- RS --> <a href="#" class="estado">
				<path	id="RS" state="RS" data-name="Rio Grande do Sul"
						d="M376.526828,718.681482 L367.39938,719.933078 L369.064824,712.889581 L373.0555,710.339704 L371.058451,696.482423 L366.73278,695.59535 L362.074577,687.059223 L361.408105,679.188192 L354.421248,676.305767 L343.44266,676.083855 L332.7967,669.875692 L330.467023,664.000079 L320.81898,658.124465 L305.515937,655.907136 L322.812575,636.728765 L324.142033,628.192638 L333.787677,615.000517 L343.600722,609.152786 L343.766877,601.642186 L361.230885,598.455032 L395.327329,599.258775 L434.413519,621.346879 L436.908231,639.776761 L429.423518,657.208934 L423.14468,662.065864 L417.531194,671.911271 L413.580914,680.093873 L394.297621,691.45148 L390.648881,698.48564 L387.998026,709.843247 L381.264478,712.433221 L376.526828,718.681481 L376.526828,718.681482 Z"></path>
				<text class="etiqueta" id="RS" x="369.22" y="658.21">RS</text>
				<text class="completo" id="RS" x="720" y="40">Rio Grande do Sul</text>
			</a>
<!-- SC -->  <a href="#" class="estado">
				<path	id="SC" state="SC" data-name="Santa Catarina"
						d="M442.827799,636.944347 L437.287075,638.944944 L434.750593,621.006978 L394.292056,598.413018 L359.488617,598.76635 L353.95832,599.452294 L365.393121,592.821668 L368.844395,586.856203 L368.636503,579.893028 L394.375279,579.581265 L403.814213,584.590591 L412.920488,585.941632 L419.698237,582.636743 L424.812748,577.336373 L444.231171,576.692061 L459.990459,573.719721 L454.792822,582.387332 L453.909214,622.300847 L446.039933,629.622598 L442.827799,636.944348 L442.827799,636.944347 Z"></path>
				<text class="etiqueta" id="SC" x="422.72" y="615.41">SC</text>
				<text class="completo" id="SC" x="720" y="40">Santa Catarina</text>
			</a>
<!-- PR -->  <a href="#" class="estado">
				<path	id="PR" state="PR" data-name="Paraná"
						d="M460.998354,572.597625 L464.410289,570.539216 L469.155615,567.578962 L463.233744,563.364106 L452.919516,561.972201 L435.702933,525.449781 L400.289408,509.315569 L386.837729,508.551028 L358.01277,534.134404 L358.365772,567.559393 L359.032435,571.18615 L369.111391,570.735228 L368.836845,579.69433 L394.602871,579.557091 L402.171827,583.811213 L413.191994,585.869622 L421.212078,581.566513 L425.467193,576.636104 L444.017104,576.498864 L460.998353,572.597626 L460.998354,572.597625 Z"></path>
				<text class="etiqueta" id="PR" x="394.9" y="561.91">PR</text>
				<text class="completo" id="PR" x="720" y="40">Paraná</text>
			</a>
		</g></a>
		
<!--    O local das etiquetas foi retirado de uma versão anterior do mapa, o efeito de escala foi usado para reposicionar-las -->
    </g>
</svg>
