<?xml version="1.0" encoding="UTF-8" standalone="no"?>
<svg width="128px" height="128px" viewBox="0 0 128 128" version="1.1" xmlns="http://www.w3.org/2000/svg" xmlns:xlink="http://www.w3.org/1999/xlink" xmlns:sketch="http://www.bohemiancoding.com/sketch/ns">
    <!-- Generator: Sketch 3.3.2 (12043) - http://www.bohemiancoding.com/sketch -->
    <title>clear_cnpc_logo</title>
    <desc>Created with Sketch.</desc>
    <defs></defs>
    <g id="Page-1" stroke="none" stroke-width="1" fill="none" fill-rule="evenodd" sketch:type="MSPage">
        <g id="Artboard" sketch:type="MSArtboardGroup" transform="translate(-225.000000, -92.000000)" stroke-width="2" stroke="#F4F4F4">
            <g id="g10918-copy" sketch:type="MSLayerGroup" transform="translate(705.500000, 156.000000) scale(1, -1) translate(-705.500000, -156.000000) translate(225.000000, 92.000000)">
                <g id="Group" sketch:type="MSShapeGroup">
                    <g id="path5532-+-path5536" transform="translate(3.000000, 67.000000)">
                        <path d="M26.0156394,21.9399364 C20.9860102,21.9399364 16.0192863,25.9535772 16.0192863,30.9616811 C16.0192863,34.9747289 19.048785,37.972101 23,38 C25.9647419,37.972101 28.5336185,34.7431684 28.9999992,31.9963987 L36.9655753,31.9963987 C36.825141,38.6128313 29.7478002,45.0095575 23,45 C14.6173023,45.0095575 7.99673223,38.3972362 7.99673223,30 C7.99673223,19.4324328 17.1988665,10.9408281 28,11 C40.1156673,10.9408281 50.3018921,19.8726066 51.0057975,31.9963987 L36.9655753,31.9963987 C36.5494736,26.1072554 32.0283089,21.9399364 26.0156394,21.9399364 Z" id="path5536"></path>
                    </g>
                    <g id="path5532-+-path5536-copy" transform="translate(96.000000, 96.000000) scale(1, -1) translate(-96.000000, -96.000000) translate(67.000000, 67.000000)">
                        <path d="M26.0156394,21.9399364 C20.9860102,21.9399364 16.0192863,25.9535772 16.0192863,30.9616811 C16.0192863,34.9747289 19.048785,37.972101 23,38 C25.9647419,37.972101 28.5336185,34.7431684 28.9999992,31.9963987 L36.9655753,31.9963987 C36.825141,38.6128313 29.7478002,45.0095575 23,45 C14.6173023,45.0095575 7.99673223,38.3972362 7.99673223,30 C7.99673223,19.4324328 17.1988665,10.9408281 28,11 C40.1156673,10.9408281 50.3018921,19.8726066 51.0057975,31.9963987 L36.9655753,31.9963987 C36.5494736,26.1072554 32.0283089,21.9399364 26.0156394,21.9399364 Z" id="path5536"></path>
                    </g>
                    <g id="path5532-+-path5536-copy-2" transform="translate(32.000000, 32.000000) rotate(-90.000000) translate(-32.000000, -32.000000) translate(3.000000, 3.000000)">
                        <path d="M26.0156394,21.9399364 C20.9860102,21.9399364 16.0192863,25.9535772 16.0192863,30.9616811 C16.0192863,34.9747289 19.048785,37.972101 23,38 C25.9647419,37.972101 28.5336185,34.7431684 28.9999992,31.9963987 L36.9655753,31.9963987 C36.825141,38.6128313 29.7478002,45.0095575 23,45 C14.6173023,45.0095575 7.99673223,38.3972362 7.99673223,30 C7.99673223,19.4324328 17.1988665,10.9408281 28,11 C40.1156673,10.9408281 50.3018921,19.8726066 51.0057975,31.9963987 L36.9655753,31.9963987 C36.5494736,26.1072554 32.0283089,21.9399364 26.0156394,21.9399364 Z" id="path5536"></path>
                    </g>
                    <g id="path5532-+-path5536-copy-3" transform="translate(67.000000, 3.000000)">
                        <path d="M26.0156394,21.9399364 C20.9860102,21.9399364 16.0192863,25.9535772 16.0192863,30.9616811 C16.0192863,34.9747289 19.048785,37.972101 23,38 C25.9647419,37.972101 28.5336185,34.7431684 28.9999992,31.9963987 L36.9655753,31.9963987 C36.825141,38.6128313 29.7478002,45.0095575 23,45 C14.6173023,45.0095575 7.99673223,38.3972362 7.99673223,30 C7.99673223,19.4324328 17.1988665,10.9408281 28,11 C40.1156673,10.9408281 50.3018921,19.8726066 51.0057975,31.9963987 L36.9655753,31.9963987 C36.5494736,26.1072554 32.0283089,21.9399364 26.0156394,21.9399364 Z" id="path5536"></path>
                    </g>
                </g>
            </g>
        </g>
    </g>
</svg>