<?xml version="1.0" encoding="UTF-8" standalone="no"?>
<svg width="611px" height="202px" viewBox="0 0 611 202" version="1.1" xmlns="http://www.w3.org/2000/svg" xmlns:xlink="http://www.w3.org/1999/xlink" xmlns:sketch="http://www.bohemiancoding.com/sketch/ns">
    <!-- Generator: Sketch 3.3.2 (12043) - http://www.bohemiancoding.com/sketch -->
    <title>Artboard</title>
    <desc>Created with Sketch.</desc>
    <defs></defs>
    <g id="Page-1" stroke="none" stroke-width="1" fill="none" fill-rule="evenodd" sketch:type="MSPage">
        <g id="Artboard" sketch:type="MSArtboardGroup">
            <g id="Group" sketch:type="MSLayerGroup" transform="translate(116.000000, 93.000000)" fill="#125A26" style="display:none;">
                <path d="M188.769,88.238 C193.885,90.579 199.947,88.637 203.039,83.649 C205.627,79.476 204.676,74.211 200.508,71.928 C197.168,70.098 192.784,71.321 190.713,74.661 C189.227,77.058 189.734,79.996 191.781,81.635 L188.87,86.329 C183.436,83.195 181.625,76.547 185.057,71.011 C189.407,63.995 198.399,61.774 205.417,65.619 C214.184,70.421 216.443,81.675 211.004,90.448 C204.655,100.687 191.837,105.364 181.384,100.419 L181.26,100.351 L188.77,88.239 L188.769,88.238" id="Fill-7" sketch:type="MSShapeGroup"></path>
                <path d="M234.806,70.544 C230.545,74.217 229.78,80.537 233.023,85.428 C235.736,89.52 240.918,90.853 244.732,88.017 C247.789,85.745 248.506,81.251 246.334,77.975 C244.775,75.624 241.894,74.86 239.55,76.036 L236.499,71.433 C241.614,67.801 248.411,68.928 252.011,74.357 C256.573,81.238 254.84,90.336 248.418,95.111 C240.396,101.075 229.226,98.433 223.522,89.83 C216.864,79.789 217.962,66.189 226.816,58.751 L226.929,58.666 L234.804,70.544 L234.806,70.544" id="Fill-8" sketch:type="MSShapeGroup"></path>
                <path d="M90.047,82.127 C91.082,87.657 96.161,91.493 102.02,91.147 C106.921,90.858 110.677,87.048 110.142,82.325 C109.714,78.54 106.188,75.662 102.257,75.904 C99.441,76.07 97.333,78.177 97.172,80.794 L91.659,81.12 C91.089,74.872 95.479,69.562 101.982,69.178 C110.223,68.691 117.219,74.761 118.12,82.713 C119.245,92.645 111.348,100.976 101.044,101.584 C89.016,102.294 77.809,94.511 75.828,83.119 L75.811,82.978 L90.038,82.139 L90.047,82.127" id="Fill-9" sketch:type="MSShapeGroup"></path>
                <path d="M279.716,78.502 C274.136,79.217 270.014,84.067 270.023,89.936 C270.023,94.846 273.617,98.815 278.363,98.552 C282.166,98.342 285.242,94.988 285.237,91.058 C285.237,88.237 283.25,86.011 280.647,85.7 L280.647,80.178 C286.917,79.968 291.966,84.656 291.975,91.17 C291.975,99.426 285.524,106.061 277.534,106.503 C267.553,107.054 259.691,98.691 259.677,88.369 C259.677,76.321 268.074,65.581 279.562,64.258 L279.705,64.251 L279.743,78.502 L279.716,78.502" id="Fill-10" sketch:type="MSShapeGroup"></path>
                <path d="M44.339,78.739 C43.087,84.224 46.22,89.765 51.733,91.779 C56.344,93.464 61.306,91.464 62.695,86.918 C63.808,83.276 61.719,79.232 58.028,77.883 C55.378,76.915 52.605,78.009 51.416,80.346 L46.229,78.451 C48.193,72.492 54.334,69.368 60.452,71.604 C68.206,74.437 72.208,82.79 69.87,90.443 C66.949,100.003 56.389,104.502 46.694,100.959 C35.378,96.824 28.194,85.224 30.911,73.984 L30.952,73.846 L44.338,78.738 L44.339,78.739" id="Fill-12" sketch:type="MSShapeGroup"></path>
                <path d="M29.843,71.348 C27.779,65.987 21.968,63.076 16.149,64.51 C11.281,65.708 8.216,70.23 9.629,74.873 C10.76,78.594 14.834,80.831 18.73,79.871 C21.527,79.182 23.254,76.676 22.93,74.018 L28.405,72.669 C30.136,78.837 26.712,84.983 20.253,86.574 C12.068,88.59 3.918,83.791 1.54,75.974 C-1.431,66.209 4.955,56.38 15.189,53.86 C27.134,50.918 39.83,56.656 43.931,67.728 L43.973,67.867 L29.843,71.348" id="Fill-13" sketch:type="MSShapeGroup"></path>
                <path d="M158.425,84.279 C157.146,88.652 159.409,93.284 163.768,95.18 C167.414,96.767 171.522,95.391 172.866,91.784 C173.943,88.894 172.451,85.523 169.533,84.253 C167.438,83.341 165.143,84.091 164.068,85.922 L159.967,84.138 C161.844,79.416 166.961,77.189 171.798,79.294 C177.929,81.962 180.758,88.909 178.495,94.983 C175.669,102.569 166.913,105.692 159.248,102.357 C150.301,98.463 145.058,88.736 147.801,79.781 L147.841,79.673 L158.424,84.279" id="Fill-14" sketch:type="MSShapeGroup"></path>
                <path d="M124.376,92.723 C128.519,94.618 133.428,93.045 135.933,89.006 C138.028,85.626 137.258,81.362 133.883,79.513 C131.177,78.031 127.627,79.021 125.95,81.726 C124.746,83.668 125.157,86.047 126.815,87.375 L124.458,91.176 C120.056,88.638 118.589,83.254 121.369,78.77 C124.893,73.088 132.175,71.289 137.859,74.403 C144.959,78.293 146.788,87.407 142.383,94.512 C137.242,102.805 126.861,106.592 118.395,102.588 L118.294,102.532 L124.376,92.723" id="Fill-15" sketch:type="MSShapeGroup"></path>
                <path d="M323.001,96.154 C325.921,89.961 323.643,82.557 317.615,78.723 C312.573,75.516 306.152,76.599 303.315,81.641 C301.041,85.68 302.469,91.032 306.504,93.599 C309.402,95.442 312.983,94.865 315.007,92.397 L320.678,96.004 C316.789,102.575 308.673,104.686 301.983,100.432 C293.505,95.039 290.928,84.065 295.705,75.577 C301.673,64.975 315.4,62.383 326.001,69.125 C338.374,76.995 343.886,92.659 337.723,105.312 L337.638,105.463 L323.002,96.154 L323.001,96.154" id="Fill-1" sketch:type="MSShapeGroup"></path>
                <path d="M394.772,98.924 C392.747,94.377 394.518,89.031 398.958,86.338 C402.673,84.086 407.323,84.973 409.307,88.681 C410.896,91.653 409.776,95.52 406.803,97.323 C404.668,98.618 402.074,98.143 400.641,96.318 L396.463,98.851 C399.188,103.687 405.054,105.348 409.982,102.36 C416.228,98.572 418.272,90.636 414.932,84.393 C410.76,76.594 400.822,74.496 393.013,79.232 C383.897,84.759 379.647,96.059 383.93,105.351 L383.989,105.463 L394.772,98.924" id="Fill-3" sketch:type="MSShapeGroup"></path>
                <path d="M353.496,90.135 C358.701,89.555 362.612,85.103 362.694,79.639 C362.762,75.069 359.483,71.32 355.061,71.492 C351.518,71.629 348.604,74.704 348.549,78.362 C348.51,80.989 350.321,83.091 352.74,83.421 L352.663,88.561 C346.823,88.661 342.195,84.219 342.286,78.155 C342.401,70.471 348.517,64.393 355.962,64.104 C365.261,63.743 372.452,71.647 372.308,81.256 C372.14,92.471 364.143,102.34 353.43,103.396 L353.297,103.402 L353.496,90.136 L353.496,90.135" id="Fill-5" sketch:type="MSShapeGroup"></path>
                <path d="M86.483,67.173 C86.189,62.627 82.478,59.048 77.734,58.756 C73.765,58.512 70.375,61.21 70.346,65.06 C70.322,68.144 72.877,70.801 76.054,70.996 C78.335,71.136 80.235,69.647 80.619,67.558 L85.083,67.833 C84.934,72.911 80.887,76.754 75.622,76.43 C68.948,76.02 63.914,70.459 63.963,63.978 C64.025,55.882 71.184,49.953 79.528,50.466 C89.267,51.065 97.521,58.413 98.005,67.765 L98.004,67.881 L86.484,67.173 L86.483,67.173" id="Fill-16" sketch:type="MSShapeGroup"></path>
            </g>
            <g id="Squares" sketch:type="MSLayerGroup" fill="#125A26">
                <path d="M115.866,83.549 L115.83,59.104 L57.715,59.181 L57.751,83.625 L66.035,83.614 C67.799,77.552 73.332,73.092 80.31,73.083 C86.674,73.073 91.559,77.684 92.162,83.579" id="Fill-18" sketch:type="MSShapeGroup"></path>
                <path d="M86.243,83.587 C85.425,81.446 83.354,79.883 80.818,79.887 C78.019,79.891 75.623,81.406 74.397,83.604" id="Fill-19" sketch:type="MSShapeGroup"></path>
                <path d="M91.846,58.234 L116.265,58.428 L116.677,0.409 L92.258,0.215 L92.213,8.497 C98.25,10.312 102.654,15.875 102.602,22.842 C102.555,29.196 97.908,34.032 92.018,34.582 L91.846,58.234 L91.846,58.234 Z M92.062,28.672 C94.207,27.875 95.785,25.821 95.804,23.289 C95.825,20.495 94.334,18.089 92.151,16.845 L92.062,28.672 Z" id="Fill-20" sketch:type="MSShapeGroup"></path>
                <path d="M74.869,31.976 C74.869,24.423 80.672,18.311 88.441,17.798 L88.441,5.417 L67.415,5.417 L67.415,58.06 L88.441,58.06 L88.441,48.7 C80.717,46.486 74.869,39.966 74.869,31.976" id="Fill-21" sketch:type="MSShapeGroup"></path>
                <path d="M82.811,31.135 C82.811,34.658 85.171,37.532 88.441,38.741 L88.441,24.496 C85.22,25.155 82.811,27.873 82.811,31.135" id="Fill-22" sketch:type="MSShapeGroup"></path>
                <path id="Fill-23" sketch:type="MSShapeGroup"></path>
                <path id="Fill-24" sketch:type="MSShapeGroup"></path>
                <path id="Fill-25" sketch:type="MSShapeGroup"></path>
                <path id="Fill-26" sketch:type="MSShapeGroup"></path>
                <path d="M0.46,61.048 L0.495,84.549 L56.359,84.475 L56.324,60.975 L48.362,60.987 C46.667,66.815 41.348,71.102 34.64,71.112 C28.522,71.12 23.826,66.688 23.246,61.021 L0.46,61.048 L0.46,61.048 Z M28.936,61.014 C29.722,63.072 31.713,64.574 34.151,64.571 C36.842,64.567 39.145,63.11 40.323,60.998 L28.936,61.014 Z" id="Fill-27" sketch:type="MSShapeGroup"></path>
                <path d="M61.486,37.078 C61.486,39.595 62.846,41.751 64.821,42.857 L64.821,32.204 C62.894,32.937 61.486,34.798 61.486,37.078" id="Fill-28" sketch:type="MSShapeGroup"></path>
                <path d="M42.843,5.571 L42.843,57.825 L64.821,57.825 L64.821,50.376 C59.371,48.782 55.367,43.801 55.367,37.527 C55.367,31.804 59.519,27.418 64.821,26.882 L64.821,5.571 L42.843,5.571" id="Fill-29" sketch:type="MSShapeGroup"></path>
                <path d="M89.925,137.071 L89.888,112.625 L33.007,112.702 L33.007,137.148 L40.095,137.137 C41.859,131.074 47.393,126.614 54.371,126.604 C60.735,126.595 65.62,131.206 66.224,137.101 L89.925,137.071" id="Fill-30" sketch:type="MSShapeGroup"></path>
                <path d="M54.879,133.409 C52.08,133.412 49.684,134.927 48.458,137.125 L56.499,137.114 L60.304,137.109 C59.488,134.968 57.415,133.405 54.879,133.409" id="Fill-31" sketch:type="MSShapeGroup"></path>
                <path d="M50.021,173.137 L50.021,172.981 C50.601,163.444 57.436,155.914 66.574,152.933 L66.574,142.244 L42.378,142.244 L42.378,201.177 L66.574,201.177 L66.574,169.532 C66.084,170.649 65.742,171.847 65.647,173.137 L50.021,173.137" id="Fill-32" sketch:type="MSShapeGroup"></path>
                <path d="M61.499,94.601 C65.142,94.601 68.114,92.159 69.364,88.778 L54.634,88.778 C55.315,92.109 58.126,94.601 61.499,94.601" id="Fill-33" sketch:type="MSShapeGroup"></path>
                <path d="M79.663,88.778 C77.373,96.765 70.631,102.813 62.369,102.813 C54.558,102.813 48.238,96.811 47.708,88.778 L33.533,88.778 L33.533,110.521 L89.344,110.521 L89.344,88.778 L79.663,88.778" id="Fill-34" sketch:type="MSShapeGroup"></path>
                <path d="M71.008,174.949 C74.178,174.301 76.549,171.625 76.549,168.416 C76.549,164.949 74.226,162.121 71.008,160.931" id="Fill-35" sketch:type="MSShapeGroup"></path>
                <path id="Fill-36" sketch:type="MSShapeGroup"></path>
                <path id="Fill-37" sketch:type="MSShapeGroup"></path>
                <path d="M71.008,141.918 L71.008,151.131 C78.609,153.309 84.365,159.726 84.365,167.589 C84.365,175.021 78.653,181.036 71.008,181.54 L71.008,195.029 L91.7,195.029 L91.7,141.918 L71.008,141.918" id="Fill-38" sketch:type="MSShapeGroup"></path>
                <path d="M18.381,114.709 C18.381,107.685 23.778,102.001 31.003,101.524 L31.003,88.778 L11.449,88.778 L11.449,138.967 L31.003,138.967 L31.003,130.261 C23.82,128.202 18.381,122.139 18.381,114.709" id="Fill-39" sketch:type="MSShapeGroup"></path>
                <path d="M25.767,113.927 C25.767,117.203 27.962,119.875 31.003,121 L31.003,107.753 C28.007,108.365 25.767,110.894 25.767,113.927" id="Fill-40" sketch:type="MSShapeGroup"></path>
                <path id="Fill-41" sketch:type="MSShapeGroup"></path>
                <path id="Fill-42" sketch:type="MSShapeGroup"></path>
                <path id="Fill-43" sketch:type="MSShapeGroup"></path>
                <path id="Fill-44" sketch:type="MSShapeGroup"></path>
                <path d="M100.984,152.862 C100.984,149.667 102.023,146.748 103.753,144.342 L93.247,144.342 L93.247,179.951 L115.079,179.951 L115.079,170.235 C107.058,167.936 100.984,161.159 100.984,152.862" id="Fill-45" sketch:type="MSShapeGroup"></path>
                <path d="M100.086,114.243 C100.086,106.4 106.113,100.053 114.18,99.52 L114.18,85.286 L92.344,85.286 L92.344,141.333 L114.18,141.333 L114.18,131.611 C106.159,129.312 100.086,122.541 100.086,114.243" id="Fill-47" sketch:type="MSShapeGroup"></path>
                <path d="M109.231,151.991 C109.231,155.649 111.684,158.635 115.079,159.891 L115.079,145.095 C111.734,145.779 109.231,148.603 109.231,151.991" id="Fill-46" sketch:type="MSShapeGroup"></path>
                <path d="M108.333,113.37 C108.333,117.029 110.784,120.013 114.18,121.269 L114.18,106.476 C110.835,107.16 108.333,109.983 108.333,113.37" id="Fill-48" sketch:type="MSShapeGroup"></path>
            </g>
            <g id="Logo" sketch:type="MSLayerGroup" transform="translate(117.000000, 58.000000)" fill="#125A26">
                <path d="M0.821,39.455 L40.127,39.455 L40.127,0.15 L0.821,0.15 L0.821,39.455 Z M34.962,18.137 C34.484,26.396 27.339,32.456 18.961,32.456 C11.783,32.456 5.665,26.813 5.665,19.638 C5.665,13.893 10.03,9.241 15.772,9.241 C20.301,9.241 23.756,12.865 23.851,17.373 L20.01,17.373 C19.694,15.502 18.07,14.079 16.108,14.079 C13.375,14.079 11.162,16.294 11.162,19.028 C11.162,22.44 14.059,25.015 17.473,25.015 C21.554,25.015 24.769,22.047 25.051,18.034 L34.962,18.034 L34.962,18.137 L34.962,18.137 Z" id="Fill-49" sketch:type="MSShapeGroup"></path>
                <path d="M43.31,39.455 L82.615,39.455 L82.615,0.15 L43.31,0.15 L43.31,39.455 Z M77.772,20.752 L67.861,20.752 C67.578,16.739 64.364,13.771 60.283,13.771 C56.869,13.771 53.971,16.346 53.971,19.758 C53.971,22.492 56.185,24.707 58.917,24.707 C60.88,24.707 62.504,23.284 62.82,21.413 L66.661,21.413 C66.566,25.92 63.111,29.545 58.581,29.545 C52.84,29.545 48.475,24.893 48.475,19.149 C48.475,11.973 54.593,6.33 61.77,6.33 C70.149,6.33 77.294,12.39 77.772,20.649 L77.772,20.752 L77.772,20.752 Z" id="Fill-50" sketch:type="MSShapeGroup"></path>
                <path d="M0.821,81.943 L40.127,81.943 L40.127,42.638 L0.821,42.638 L0.821,81.943 Z M22.342,65.803 L22.342,61.963 C24.213,61.646 25.636,60.022 25.636,58.06 C25.636,55.327 23.421,53.114 20.687,53.114 C17.275,53.114 14.7,56.011 14.7,59.426 C14.7,63.507 17.668,66.721 21.68,67.004 L21.68,76.914 L21.578,76.914 C13.318,76.437 7.259,69.292 7.259,60.913 C7.259,53.735 12.902,47.618 20.077,47.618 C25.822,47.618 30.474,51.983 30.474,57.724 C30.474,62.254 26.849,65.708 22.342,65.803 L22.342,65.803 Z" id="Fill-51" sketch:type="MSShapeGroup"></path>
                <path d="M43.313,81.943 L82.618,81.943 L82.618,42.638 L43.313,42.638 L43.313,81.943 Z M77.452,60.625 C76.974,68.885 69.829,74.944 61.451,74.944 C54.273,74.944 48.155,69.301 48.155,62.126 C48.155,56.381 52.521,51.729 58.262,51.729 C62.792,51.729 66.246,55.354 66.341,59.861 L62.501,59.861 C62.185,57.99 60.56,56.567 58.598,56.567 C55.865,56.567 53.652,58.782 53.652,61.516 C53.652,64.928 56.549,67.503 59.964,67.503 C64.045,67.503 67.259,64.535 67.542,60.523 L77.452,60.523 L77.452,60.625 L77.452,60.625 Z" id="Fill-52" sketch:type="MSShapeGroup"></path>
            </g>
            <text id="Conselho-Nacional-de" sketch:type="MSTextLayer" font-family="Helvetica Neue" font-size="33" font-weight="bold" line-spacing="28" letter-spacing="-0.469999999" fill="#F9AF3A">
                <tspan x="208.917664" y="82.6675781">Conselho </tspan>
                <tspan x="208.917664" y="111.667578">Nacional de </tspan>
                <tspan x="208.917664" y="140.667578">Política Cultura</tspan>
                <tspan x="443.287664" y="140.667578">l</tspan>
            </text>
        </g>
    </g>
</svg>